<?xml version="1.0" encoding="UTF-8"?>
<svg version="1.1" viewBox="0 0 1536 1024" width="1536" height="1024" xmlns="http://www.w3.org/2000/svg">
<path transform="translate(845,23)" d="m0 0 7 3 8 11 8 20 5 19v6l9-1 5 5 4 12 1 7v14l-2 15-4 16-7 16-7 11-11 13-8 6-10 6-8 4 4 29v28l-3 16-11 27-8 22-6 25v12l5 13 1 6v15l-4 11-9 10-2 1-7 24-5 9-8 12-6 27-5 12-6 11-11 13-6 4 2 4 9 10 11 18 8 18 7 21 7 28 8 40 6 36v9l-2 5-4 4 1 12 4 29 25 5 24 3h17l19-2 16-3 3-1 10-27 10-29 15-43 19-53 5-9 11-7 7-2 71-4 213-11 16-1h12l8 3 5 5 2 4v12l-9 26-17 46-21 57-19 52-18 50-14 39-11 30-6 10-8 8-10 4-29 6-155 30-84 16-29 5h-26l-33-6-83-18-49-11-94-20-27-6-6-4-3-3v-2l-46 9-45 7-27 3-27 2h-48l-30-3-25-5-12-4-10-6-8-7-6-12-3-10-1-7v-36l6-69 3-29-1-5-4-5-1-3v-18l6-40 8-42 8-34 9-27 10-21 10-14 7-9h2l2-4 10-9 16-11 16-9 10-5 24-10 52-20 18-8 11-7 7-9 7-14 5-16 4-18v-8l-12-12-9-14-6-14-4-15-2-11-1-14 2-15 3-9-1-10-8-41-3-29v-12l3-21 5-15 8-13 2-5-4-6v-8l5-4h15l7-10 9-11 8-8 12-9 14-8 13-6 19-6 22-4 11-1h95l22-3 17-5 11-6 7-4 7 2 4 5v8l-5 14-2 3 21-7 12-7 10-9 6-10 4-6 4-3z" fill="#07020E"/>
<path transform="translate(492,468)" d="m0 0h2l4 19 5 12 14 20 11 12 7 8 15 13 18 12 12 6 15 5 15 2h14l13-4 8-5 8-9 5-8 2-7 2 4 2 1v3h2l1-9 1-18 6 2 12 5-6-4 2-1 13 6 32 7 10 5 8 8 9 13 8 17 8 22 7 27 5 22 9 49 1 8-5 5-19 8-20 7-18 4-10 1h-17l3-9 11-26 9-27 6-24 2-16v-19l-1-6-3 19-7 31-8 26-7 18-11 26-13 27-10 19-8 16-8 15-7 7-11 4-24 6-12 2h-39l-35-2-31-3-33-4-26-2-25-3 6-33 2-20 2-4 5 4 5-5 3-9 5-18 4-16 4-7 6-8 8-15 5-13 2-7-2 2-1 7-8 16-8 15-5 4 1-11 6-48v-10l-5 25-13 52-4 24-4 13-8-6-16-7-13-4-16-3-37-4h-42l-6 2 2-19 6-38 8-37 3-15 7-24 8-21 9-17 10-13 10-10 13-10 18-11 19-9 26-10 37-14z" fill="#292827"/>
<path transform="translate(1279,598)" d="m0 0h17l3 3-3 10-11 31-18 49-17 46-18 50-14 38-20 56-6 15-8 5-20 4-37 7-24 4-211 39-12 2h-7l-8-4-1-2v-7l7-19 5-15 16-46 7-20 13-38 10-29 14-40 7-19 10-30 9-24 8-24 7-18 6-7 6-2 103-5 109-6 61-3z" fill="#544F5B"/>
<path transform="translate(652,165)" d="m0 0h14l29 6 27 8 15 6 23 8 14 5 21 5h23l4 13 3 20v24l-12 1-6 4-7 14-6 16-5 18-2 13v15l3 12 7 17 5 13 1 3v9l-3 10-6 5-10 3h-15l-16-4-8-5-2-5v-9l-3 5-1 8 2 5 4 4-1 4-5 1-19-3-24-6-6-1h-14l-8 4-7 8-5 13-7 31-4 11-4 5-6-2-16-10-14-11-11-10-9-11-7-10-4-16-3-20v-21l-7 6-8 3h-13l-10-3-8-6-7-7-8-13-6-16-4-20v-16l5-15 8-10 9-5 6-1h9l10 3 8 7 7 14 6 24 5 19 5 10 7 6 3 1h7l2-5 1-59 2-9 7-11 12-11 11-9 7-7 3-9v-11l-3-17v-19l4-9 8-7z" fill="#E1AA86"/>
<path transform="translate(303,731)" d="m0 0h26l37 4 23 4 19 5 9 5-3 22-6 30-2 8-33 1-13 4-11 7-1 2 17-6 6-1h36l128 14 43 2h21l17-2 19-5 17-5 16-4 34-12 24-6h14l23 5 25 7 13 5 8 6 7 11 11 23 4 9-1 6-5 2-5-5-6-7-15-24-6-7-9-6-20-8-26-8h-5l25 9 19 8 9 6 7 8 18 27 8 10 11 14-2 1v5l-4 3-9-1-7-4-9-10-11-16-9-11-10-10-8-5-30-10-11-4-1 1 27 12 16 8 10 9 8 10 10 14 7 12v6l-5 4h-8l-9-4-9-7-11-12-11-9-11-7-11-5-16-5-11-3 16 8 16 7 11 7 14 12 8 8 3 6-2 6-3 2h-11l-12-5-19-10-21-9-5-1h-10l-25 12-15 6h-21l-10-3-16-4-2-2-21 7-37 8-32 6-50 7-40 3h-36l-25-2-25-4-16-5-9-5-7-8-3-8-1-7v-34l4-52 5-49v-15z" fill="#E0AA86"/>
<path transform="translate(1154,656)" d="m0 0 4 2v2l8 2 7 1 5 3h9l5 3 4 8h3l1-4 2 1 6 7 3 3v6h9l2 5 2 1v2l6 2 5 1 3 5 2 1-1 7 4 2 1 7-1 4-1 7v4l3 2 2-1 3-8 1 3-19 53-14 38-6 17-2 1 2-10-4-2h2l-1-4 2-2-8 2-3 5-5 2-3-1v2h-2l-1 4-8 7-6 2-10 2-10 1-1 2-10-1-7 2-2-1-7 1-2 2h-5v-1h-7l-5 1v3l-9 3-5-1-3-4-4 1-2 2-9 2-7-3v-3l-8 2h-7l-7-2-9 1-6-2-16-6-9-1h-3v-2l-5-1-2-4-5-1-1-1-4 1-4-6-5-11-7-7v-6l-1-1-1-7-2-3 1-9-1-8v-15h2l1-11 3-5v-6l-1-4h2l2-4 4-10 3-15 3-6h2l2-5 4 1 2-4 1-6 4 2h3l2-7 9-4h3 2v-2h2l1-4 4-2h5l1 2 10-1 3-1 1-3h2v2h3l2-4 3-3 5 2 3 2v-2h4v2l9-3h3v-2l5 1 6 2v-2h2l2-4 1-1h12l8 1v-2l4-2h4l1-2 3 4h8l5 1 8-1 1-4z" fill="#5C4D66"/>
<path transform="translate(844,43)" d="m0 0 4 4 5 13 5 22 2 14v16l-2 6h4l2-4 6-7 5-4h2v18l-2 14-7 20-3 3v-2l-7 2-10 1h-22l-1-2 4-5 4-1 6-10 6-13v-2h-3l-1-2-11 13-11 12-5 5-15 7-11 4-10 2h-14l-27-4-33-6-38-3h-21l-35 4 38 1-4 3-6 4-5 7-2 7v19l2 16v16l-5 8-9 8-11 9-8 8-6 11-3 13v53l-1 2-4-1-6-7-5-16-6-27-3-10-7-13-9-8-5-2-6-1h-11l-10 2-10 6-4 4-8-38-3-21v-31l3-14 5-12 7-12 13-13 12-18 9-10 9-8 14-9 12-6 21-7 27-4h94l18-2 20-4 13-4-1 5-7 15-2 3-7 1h20l25-5 14-5 13-7 12-11z" fill="#292727"/>
<path transform="translate(781,725)" d="m0 0h3l5 31 2 20-8 3v1l20 2 26 5 16 2 14 1h16l21-3 16-3-2 9-11 31-6-2-14-8-14-4-6-1h-13l-10 2-1 1h18l15 4 16 8 7 7 3 4-1 7-8 22-1 5-1 2-1 6h-2l-2 9-3 10-1 5-8 25-3 12h-2l-2 8v7l2 4 3 2v2l20-2 57-11 87-16 88-16 46-8 24-4v3l-5 6-8 3-59 11-80 16-54 10-99 19-6 1-17-1-49-10-39-9-39-8-26-6-37-8-59-13-35-7-2-4 3-6-1-4 9-4 10-3v2l21 5 5 2h21l21-9 19-9h10l10 3 24 11 16 8 7 3h11l3-2 1-5-4-7-10-10-14-11-15-8-17-7-8-5 2-1 20 6 13 5 11 6 11 9 11 10 7 8 9 6 6 2h8l4-3v-6l-7-12-8-11-7-9-9-10-14-8-32-14-2-2 3-1 16 6 27 9 9 7 11 11 11 15 8 11 7 8 9 4h6l3-2 2-6-20-25-11-17-10-14-6-5-12-6-25-10-12-4-1-2 10 1 33 11 14 7 8 7 10 15 10 16 5 6 5 2 3-3-1-7-11-23-8-14-1-3-4-2-8-5-26-8-26-6-5-1h-14l-24 6-13 4-1-1h-12l2-2v-8l-1 7-9 2 7-11 1-8v-8l4-5 2 13v8h2l-2-13v-7l5-11h1l2 12-1-15 2-2 2-4 2 16v-21l5-9h22l18-2 20-6z" fill="#080508"/>
<path transform="translate(845,23)" d="m0 0 7 3 8 11 8 20 5 19v6l9-1 5 5 4 12 1 7v14l-2 15-4 16-7 16-7 11-11 13-8 6-10 6-8 4 4 29v28l-3 16-11 27-8 22-6 25v12l5 13 1 6v15l-4 11-9 10-2 1-7 24-5 9-8 12-6 27-5 12-6 11-11 13-6 4 2 4 9 10 11 18 8 18 7 21 7 28 8 40 6 36v9l-2 5-4 4 1 12 4 29 25 5 24 3h17l19-2 16-3 3-1 10-27 10-29 15-43 19-53 5-9 11-7 7-2 71-4 213-11 16-1h12l8 3 5 5 2 4v12l-9 26-17 46-21 57-19 52-18 50-14 39-11 30-6 10-8 8-10 4-29 6-155 30-84 16-29 5h-26l-33-6-83-18-49-11-94-20-27-6-6-4-3-3v-2l-46 9-45 7-27 3-27 2h-48l-30-3-25-5-12-4-10-6-8-7-6-12-3-10-1-7v-36l6-69 3-29-1-5-4-5-1-3v-18l6-40 8-42 8-34 9-27 10-21 10-14 7-9h2l2-4 10-9 16-11 16-9 10-5 24-10 52-20 18-8 11-7 7-9 7-14 5-16 4-18v-8l-12-12-9-14-6-14-4-15-2-11-1-14 2-15 3-9-1-10-8-41-3-29v-12l3-21 5-15 8-13 2-5-4-6v-8l5-4h15l7-10 9-11 8-8 12-9 14-8 13-6 19-6 22-4 11-1h95l22-3 17-5 11-6 7-4 7 2 4 5v8l-5 14-2 3 21-7 12-7 10-9 6-10 4-6 4-3zm-3 8-10 16-9 9-11 7-11 5-19 5-9 1-2 1 8-17 4-10v-5l-4-2-8 6-10 5-14 4-18 3-13 1h-33l-16-1h-25l-28 2-24 5-17 6-16 8-14 10-8 7-7 8-9 13-4 6-11-2h-5l2 5 5 5-1 4-7 9-7 14-4 15-1 8v26l4 29 8 38-1 7-3 7-1 5v19l3 17 6 18 7 13 8 10 9 8v14l-4 19-6 18-9 17-6 7-10 6-21 10-40 15-32 13-19 9-16 10-14 11-11 11-10 13-9 16-8 21-7 23-6 26-6 30-7 43-1 11v12l6 7v12l-6 63-3 39v24l3 16 4 9 7 8 8 5 15 5 21 4 27 3h57l42-4 40-6 52-10 10-2 1 6 5 4 11 3 47 10 42 9 95 21 34 7 32 7 26 5h15l26-4 43-8 228-44 13-4 8-8 7-15 20-56 16-44 14-39 15-41 19-51 20-55 2-6v-7l-5-5-2-1h-21l-283 15-11 1-9 5-8 16-18 51-15 43-18 51v3l-11 2-24 4h-30l-19-2-33-6-8-53 5-2 3-3v-8l-7-38-7-35-7-28-7-21-7-16-8-14-11-14-9-8 5-5 8-6 8-9 7-11 5-12 7-29 5-8 6-9 5-16 4-12v-2l5-2 5-6 4-9v-13l-7-21v-8l5-23 6-19 8-20 7-17 2-9 1-10v-21l-3-22-4-15 9-2 13-7 11-9 8-9 9-16 5-14 3-11 1-8v-21l-3-12-5-1-7 7-4-22-7-24-8-16-4-4z" fill="#CD46E8"/>
<path transform="translate(1123,697)" d="m0 0h9l4 1v2l12 3 6 4 10 7 10 6 1 3h2l10 10 5 4 4 6 3 5 1 4v10l-4 13-3 2-2 5-4 2v2l-5 2-10 9-13 7-9 6-21 7-17 3-9 4-18 6h-9l-4-2v-2l-12-2-4-3v-2l-6-2-14-7-9-6-9-11-4-7-3-3-3-10 3-13 5-8h2l2-5 9-9 12-9 18-9 9-2 14-5 14-1 1-3 13-5 9-2 2-4z" fill="#7E458F"/>
<path transform="translate(535,382)" d="m0 0 11 3h9l8-3 3 27 4 17 6 12 7 9 14 15 11 9 13 10 12 8 12 10 2 9-10 21-7 19v2l12-18 6-10h2l4 9-1 12-4 10-9 10-10 6-2 1h-23l-17-5-16-7-15-10-13-11-11-11-9-11-9-12-8-14-4-10-1-4v-10l10-12 9-15 6-15 6-25z" fill="#E0AA86"/>
<path transform="translate(680,410)" d="m0 0h10l31 7 16 3 7 1 4-4 1-5 12 3 6 1h22l1 2-5 14-3 8-5 2-12 2h-23l-32-5-20-7-7-3h-9l-3 2-4 13-1 6h-2l1 8 8-24 2-2 5-1 10 4 18 6 36 6 7 1h12l9-2 4 1-7 14-4 16-4 15-7 14h-3l1-7 3-12-1-6-3-2 1 3v8l-4 11-4 8h2l-1 6-4 5-9 6-7 3h-14l-4-2-7-1-1-3-7-1-7-3v-2l-11-3-2-1v-3l-9-2-12-7-8-8v-2l-3-1-2-5 4-2 2-3 3-1 5-13 5-19 5-20 6-11 9-5z" fill="#171214"/>
<path transform="translate(781,725)" d="m0 0h3l5 31 2 20-8 3v1l20 2 26 5 16 2 14 1h16l21-3 16-3-2 9-11 31-6-2-14-8-14-4-6-1h-13l-10 2-1 1h18l15 4 16 8 7 7 3 4-1 7-8 22-3 3-11-11-8-5-4-1-18-2-9-2-5-5-10-19-8-9-9-5-10-4-29-8-18-4h-19l-23 6h-2l-4-33v-14l5-9h22l18-2 20-6z" fill="#E0AA86"/>
<path transform="translate(528,265)" d="m0 0h9l10 3 8 7 7 14 6 24 5 19 5 10 6 7 6 3v11l2 21 4 17 8 20 9 17 12 16 14 12 5 3-1 8-4 2-14-8-14-10-10-9-7-6-9-11-7-10-4-16-3-20v-21l-7 6-8 3h-13l-10-3-8-6-7-7-8-13-6-16-4-20v-16l5-15 8-10 9-5z" fill="#E0AB87"/>
<path transform="translate(584,899)" d="m0 0h16l28 6 134 27 28 6 63 13 5 3 3 5 2 1h15l63-12 87-16 88-16 46-8 24-4v3l-5 6-8 3-59 11-80 16-54 10-99 19-6 1-17-1-49-10-39-9-39-8-26-6-37-8-59-13-30-6-5-3 1-5 7-4z" fill="#57515D"/>
<path transform="translate(1125,687)" d="m0 0h9l10 1 9 2 7 3 2 1v2l9 2 14 10h2v2l4 2 10 10 9 17 1 1 3 18-2 5-3 7-8 16-6 9h-2l-2 4-9 7-12 8-6 3-12 7-5 3-11 3-14 3-10 1-10 4-13 1-6 2-9-1-6-3h-9l-3-1v-2l-10-2-1-1-10-2-8-4-7-7-8-6-5-8-9-19-2-3v-24l6-11 8-14 5-6 7-5 5-6 14-8 13-4 7-3 9-1 13-4h8l5-2 5-3 16-2zm-2 10-6 6-11 2-10 5v2l-14 1-16 6-10 2-10 6-5 2-13 10-5 5-5 6v2h-2l-5 8-3 13 3 10 4 5 10 14 6 5 11 6 12 6h2l2 4 11 3h3v2l4 2h9l16-5 10-4 4-2 14-2 21-7 16-10 6-3 7-7 4-3 4-1v-2l4-2 3-6 2-1 4-13v-10l-3-8-4-5-10-10-5-4-1-2h-2l-2-4-14-8-9-7-11-3-3-1v-2l-10-1z" fill="#6C4778"/>
<path transform="translate(687,874)" d="m0 0h8l31 8 18 2 8 3v2l6 2 4 5 1 5-3 5-2 1h-11l-12-5-19-10-21-9-5-1h-10l-25 12-15 6h-21l-10-3-16-4-2-2-21 7-37 8-32 6-50 7-40 3h-36l-25-2-25-4-16-5-9-5-3-3-5-11-1-10 7 5 11 2 9 4 20 4 25 3 18 1h50l23-2 24-3 35-5 37-7 17-3h30l11 2h34l16-3 21-5z" fill="#BD8469"/>
<path transform="translate(732,603)" d="m0 0h1l2 12v19l-3 20-6 23-9 27-14 32 27-2 18-4 20-7 15-6 3 1-3 2 3 9h-2v-4l-26 11-18 5-18 2h-22l-4 8v26h-1l-2-15h-3l1 18-2-3-2-10-4 9 1 20h-2l-3-19-2 4v12l-4 8-4 5 8-1v-11l2 4v8l-1 1h11l-1 3-30 10-17 4-20 6-11 2-11 1h-21l-43-2-74-8-54-6h-36l-12 3-8 3h-3l2-4 10-6 13-4h33l1-8 8-42 1-10-8-4-19-5-30-5-30-3-27-1 1-4-3-2 1-1h38l37 4 20 4 19 7 10 6 3 3 3-8 4-21 4-20 13-52 3-15h1v13l-6 48-1 10 6-8 12-23 2-6v-5l3-1-2 10-5 11-10 19-6 7-4 14-5 20-4 11-3 5-3 2-5-4-1 3-2 20-4 22-3 11h10l27 3 32 3 33 4 27 2 21 1h39l21-4 24-7 8-7 14-26 16-32 14-30 9-23 9-25 8-32 3-14z" fill="#060406"/>
<path transform="translate(799,347)" d="m0 0h3l-1 16 6 17v2h2l1 3v13l-6 12-6 5h-2l-3 11-3 8-1-3 3-10v-4h-25l-15-3-2-1-3 7-5 2-15-3-37-8h-10l-9 4-3 1-6 15-5 19-4 16-5 13-4 2-2 3h-2l-1 3 9 10 9 7 7 3 6 2 2 1v3l10 2 3 2v2l6 1 8 3 1 2 9 2 2 1h14l3-2 3 1-7 7h-3v3l3 1v1l-10-1-19-4-14-6 7 4-2 1-12-5-6-3v20l-2 7h-2v-3l-4-1-4 8-8 10-7 6-12 5-5 1h-14l-15-2-15-5-14-7-17-12-10-9-8-7-11-12-10-13-10-16-5-16-1-10 4 5 2-1 1-9h1l2 15 5 12 7 12 9 12 12 14 11 11 13 10 15 9 14 6 15 4h23l11-6 7-7 5-10 2-9-1-9-2-6-3 3-9 15-8 11-1-3 9-24 8-16-2-9-12-10-15-10-14-11-14-13-7-8-7-9-6-12-4-17-3-26-7 3h-9l-10-3-1 8h-2v-8l3-3v-4l-2-1 9 1h13l9-4 7-5v22l3 20 4 16 8 11 12 14 11 9 12 9 17 10 3-1 4-7 6-25 5-19 5-10 9-8 5-2h14l26 6 15 3 12 1 1-4-5-5-1-9 3-7 3-3v11l2 5 10 5 13 3h15l10-3 5-4 3-10v-9l-5-14-2-6-1-5-1-4 3-5z" fill="#070407"/>
<path transform="translate(1128,701)" d="m0 0 6 1 2 3v8l-9 20-3 7 1-1 7-14 3 1 3 4 2-2 1 8 9 9 11 9 6 4-15-13-8-7-3-4 1-6 5-5h8l28 24 6 6 1 8-3 5-10 8-12 8-20 14-11 7h-7l-4-4-1-7 5-5 11-8-11 7-5 4-1 3-14 2-3 5h-5l1-5 17-38 5-11-1 1-12 26-11 25-9 19-4 5-6 1-4-2-1-2v-7l19-42 28-63 4-5z" fill="#9B42B5"/>
<path transform="translate(1279,598)" d="m0 0h17l3 3-3 10-4 10-1-2 4-12h-21l-102 5-71 4-88 4-16 1-8 4-4 5-4 9-8 22-17 48-13 37-14 41-14 40-16 46-15 43-12 35-4 3-3-1-1-2v-7l7-19 5-15 16-46 7-20 13-38 10-29 14-40 7-19 10-30 9-24 8-24 7-18 6-7 6-2 103-5 109-6 61-3z" fill="#93817C"/>
<path transform="translate(832,853)" d="m0 0 21 1 8 2 12 9 7 8 1 4-17 50-2 6-18-2-10-2-15-2-21-4-51-9-27-6-40-7-13-3-2-2 12-7 3-1h11l18 6 15 7 12 6 14 5h8l8-2 4-4 1-2 5 1 10 3 10-1 5-6 2-5 11 5 4 1h12l4-4 1-3v-8l-3-6-3-4 5-4 1-2v-9z" fill="#292827"/>
<path transform="translate(769,57)" d="m0 0 1 3-5 5h-2v2l-11 2-11 3-24 3-49 3-33 3-33 7-17 5-16 8-13 8-13 11-8 8-11 14-7 11-6 13-4 14-1 6v30l5 39v6l2 1-7 6-2 2-8-38-3-21v-31l3-14 5-12 7-12 13-13 12-18 9-10 9-8 14-9 12-6 21-7 27-4h94l18-2 20-4z" fill="#513340"/>
<path transform="translate(492,468)" d="m0 0h2l1 5v7l-1-4-24 12-26 12-21 8-22 8-16 8-17 7 7 2-4 5-8 7-9 12-9 15-9 19-9 27-8 30-5 27-6 35-2 13-1 1-11 2h-3l2-18 6-38 8-37 3-15 7-24 8-21 9-17 10-13 10-10 13-10 18-11 19-9 26-10 37-14z" fill="#50333F"/>
<path transform="translate(535,382)" d="m0 0 11 3h9l8-3 3 27 4 17 6 12 7 9 14 15 11 9 13 10 12 8 12 10 2 9-5 10h-2l-9 22-4-2-11-8-13-12-10-10-7-9-13-17-9-19-5-16-2-13v-20l1-3-2-10-5-4-12-6h-3l-1-2z" fill="#BE8569"/>
<path transform="translate(840,123)" d="m0 0 2 1v2l4-1-1 6-10 19-3 3-4 1-2 4h22l17-2 1 3-5 9-9 10-8 6h-4v3l-6 3-7 2-11 1v2l-7 2h-15l-7-2 1-3-4-1-14-2-9-2-16-6-9-4-9-2-15-6-11-2-21-7v-2l-6-1v-1l10-1h9l18 2 37 7 16 2h14l16-4 18-8 4-3h2l2-4 11-12 8-10z" fill="#171214"/>
<path transform="translate(704,245)" d="m0 0h10l16 3 39 11 4 3-1 9-4 11-4 7-6 9-5 5-10 7-4 3-1 5h-1l-1-8-2 18-3 8-1-3 1-4v-15l-4-10-6-5-7-2h-13l-16 6-9 7-4 6v8l7 10 4 5-4-2-7-6-4-6-1-8 4-8 10-10 14-7 9-2h12l7 2-11-3v-10l-5-2-2-4h10l15 4 25 9-4-2-30-10-16-3h-23l-13 4-14 7 1-5 8-11 9-9 9-6 11-4z" fill="#261E18"/>
<path transform="translate(645,153)" d="m0 0h21l18 2v1l-6 1 2 1v2l9 2 15 5 11 2 14 6 10 2 14 6 11 4 17 3h7l4 2h-3l-1 2 1 1 5 1h15l7-1-1 6 3-1 1 3-7 1h-17l-21-5-20-7-41-15-22-6-25-5h-14l-6 3-6 7-2 6v19l3 17v11l-3 9-11 11-11 9-9 8-6 10-2 9-1 59-3 6h-7l-6-3-7-8-5-13-8-34-5-12-4-6-6-5-10-3h-9l-8 2-9 6-4 4 1-5 2-2-2-6 10-6 10-2h11l9 2 8 6 6 7 6 13 4 15 5 23 4 12 6 7 3 1v-55l3-13 6-11 11-11 11-9 8-7 3-6v-16l-2-16v-19l3-9 7-8 6-3-38-1 2-2z" fill="#080507"/>
<path transform="translate(679,431)" d="m0 0 9 3 13 5 17 4 33 5h12l9-2 4 1-7 14-4 16-4 15-7 14h-3l1-7 3-12-1-6-3-2-2-6-5-2h-11l-9 2 2 4-5 10-7 6-6 2h-9l-8-4-10-9-10-13-4-8v-9l6-18 2-2z" fill="#E1AA86"/>
<path transform="translate(1078,725)" d="m0 0h6l5 6 2-1v5l5 1 2-1h6l2 1-3 9-13 30-13 28-2-1-4 1-4-1 1-9-2-5-4-2-13-11-6-5 5 5 10 9 8 7 1 6-3 6-3 2h-7l-8-6-15-13-11-9-2-5 1-5 4-5 41-28z" fill="#9A42B5"/>
<path transform="translate(461,690)" d="m0 0h1l-1 22-1 16v14l1 8 2 43 1 21-5 1-19-1-25-3 6-33 2-20 2-4 5 4 5-5 3-9 5-18 4-16 4-7 6-8 3-3z" fill="#1D1917"/>
<path transform="translate(509,340)" d="m0 0 4 5 6 9 8 9 15 8h10l10-4 4-8 6-17 1-2h2l6 7 9 5v11l2 21 4 17 8 20 9 17 12 16 14 12 5 3-1 8-4 2-14-8-14-10-10-9-7-6-9-11-7-10-4-16-3-20v-21l-7 6-8 3h-13l-10-3-8-6-7-7-4-6-4-10z" fill="#BD8469"/>
<path transform="translate(584,899)" d="m0 0h16l28 6 134 27 7 3 86 18 6 9-4 1-7-1-6 2-11-3-18-3-21-5-18-4-15-4-22-4-17-4-22-5-26-5-31-7-14-3-44-10-9-1v-3z" fill="#493F46"/>
<path transform="translate(680,410)" d="m0 0h10l31 7 16 3 7 1 4-4 1-5 12 3 6 1h22l1 2-5 14-3 8-5 2-12 2h-23l-32-5-20-7-7-3h-9l-3 2-4 13-1 6h-2l1 6-7 5-4 5 1-10 5-21 3-10 5-9 9-5z" fill="#261E18"/>
<path transform="translate(984,630)" d="m0 0 4 2 1 3-8 23-14 40-15 43-17 49-10 28-14 41-21 60-11 32-3 4h-2v-2h-2l-1 2h-3v-2l3-2 16-47 30-86 17-49 15-43 21-60 7-19 5-14z" fill="#443C41"/>
<path transform="translate(825,235)" d="m0 0h1l1 11v11l-1 7 2 1h-2l-1 6-4 9-1 8h2l3-4-1 5-11 27-7 25-3 15v8l5 14-1 4-7-19 1-15-5 5-2 6 2 4-1 3-5-10-3-9-1-6v-15l3-17 6-20 8-19 6-8 4-2h12z" fill="#080608"/>
<path transform="translate(781,725)" d="m0 0h3l5 31 2 20-5 1-2-2 3-1-3-12-4-13-2-5 1-2v-5l-7 4h-2l-1 4-15 5-28 6-9 5-2 2-1 4v11l3 7 2 2 18 3v1l-18 2-18 5h-2l-4-33v-14l5-9h22l18-2 20-6z" fill="#C0876B"/>
<path transform="translate(1147,723)" d="m0 0h8l28 24 6 6 1 8-3 5-10 8-12 8-20 14-11 7h-7l-4-4-1-7 5-5 11-8 22-15 6-4h2l-5-5-11-10-8-7-3-4 1-6z" fill="#FDFDFD"/>
<path transform="translate(666,469)" d="m0 0 4 2 11 16 7 5v2l5 2 4 2h14l7-3 5-5 4-6 3-8 5-2h11l3 3v2h2l1 3v8l-4 11-4 8-8 5-10 5-14-1-12-2-14-7-6-4-1 2-6-6-2-13-2-1-1-9v-2z" fill="#261E18"/>
<path transform="translate(1078,725)" d="m0 0h6l4 4v6l-5 5-14 10-20 14-7 5 4 5 11 9 9 8 1 6-3 6-3 2h-7l-8-6-15-13-11-9-2-5 1-5 4-5 41-28z" fill="#FEFEFE"/>
<path transform="translate(1128,701)" d="m0 0 6 1 2 3v8l-27 60-11 25-9 19-4 5-6 1-4-2-1-2v-7l19-42 28-63 4-5z" fill="#FDFDFD"/>
<path transform="translate(701,296)" d="m0 0h13l8 3 6 5 4 10v15l-3 8-4 6-4 3 2-4 3-9 1-6v-10l-2-6h-7l-4 5-3 8v17l3 5 5 1v1l-8 1-11-2-12-5-8-6-6-7-3-5v-8l4-6 7-6 10-5z" fill="#FCFBFB"/>
<path transform="translate(687,874)" d="m0 0h8l31 8 18 2 8 3v2l6 2 4 5 1 5-3 5-2 1h-11l-12-5-19-10-21-9-5-1h-10l-25 12-15 6h-21l-10-3-13-3-1-3 4-1 1-2 15 4 10 3h10l1-3h2l2-5 1-2-4 1h-25l-11-2-12-1h-19l-17 2 2-2 12-2h30l11 2h34l16-3 21-5z" fill="#AE7960"/>
<path transform="translate(583,890)" d="m0 0 3 1-9 4-4 2-25 6-47 9-50 7-40 3h-36l-25-2-25-4-16-5-9-5-3-3-2-6 19 9 16 5 16 2 27 2h28l27-1 31-3 26-4 29-4 32-7 13-3h7l4 1z" fill="#B27C62"/>
<path transform="translate(657,900)" d="m0 0 9 2 26 6 15 3 19 3 28 6 34 6 24 5 22 4 20 4 1 1v6l-1 1-12-1-90-18-38-8-16-3-58-12 1-2z" fill="#94807A"/>
<path transform="translate(705,273)" d="m0 0h10l15 4 25 9h9l-1 5-8 11-15 10-2 6h-1l-1-8-2 18-3 8-1-3 1-4v-15l-4-10-6-5-7-2h-13l-16 6-9 7-4 6v8l7 10 4 5-4-2-7-6-4-6-1-8 4-8 10-10 14-7 9-2h12l7 2-11-3v-10l-5-2z" fill="#AB755C"/>
<path transform="translate(303,731)" d="m0 0h26l37 4 23 4 19 5v2l7 3-1 5-3 7-1 5-4-1-6-8-13-5-31-6-49-6-4 14-4 17h-1l-1-14 1-9v-15z" fill="#BC8468"/>
<path transform="translate(526,280)" d="m0 0h7l6 3 8 7 3 5v2h2l1-2 7 14 3 13v5h-2l-2-5-5-9 2 4 1 4-4-1-6-4-5 1-3 4v11l3 6 6 5-3 1-5-3-4-5-3-6-1 4v-2h-2l-2-5 1-10 5-16h-10l-2 4-1 3-1 11-3-3v-4h-7l-1-5v-8l3-8 5-7h3z" fill="#AF795F"/>
<path transform="translate(679,431)" d="m0 0 9 3 13 5 17 4 33 5h12l9-2 4 1-7 14-4 16-4 15-7 14h-3l1-7 3-12-1-6-3-2-2-6-5-2h-11l-10 2 1 5-3 5-2 2-1-8-7-8-1-3h30l9 3 9 1 4-5 4-9-2-1-17-1-32-6-17-3-8 1-6 5h-3v-3l-6 2-2 3-1 12-3-3-1-8 5-16 2-6z" fill="#BE8569"/>
<path transform="translate(535,382)" d="m0 0 11 3h9l8-3 3 27 4 17 6 12 7 9 14 15 11 9 13 10 12 8 12 10 2 9-5 4-5-5-11-9-13-12-10-9-22-22-9-11-6-10-5-11-5-22-5-4-12-6h-3l-1-2z" fill="#AE7860"/>
<path transform="translate(733,544)" d="m0 0 5 2 7 7 9 13 8 17 8 22 7 27 5 22 9 49 1 8-5 5-4 1-1-18-4-23-6-31-7-26-10-30-12-27-7-12v-4l-3-1z" fill="#503441"/>
<path transform="translate(817,818)" d="m0 0 11 7 5 4 13 6 11 3 16 2 9-1 1-1-1-10-1-3 5 1 8 9-1 7-8 22-3 3-11-11-8-5-4-1-18-2-9-2-5-5-9-17z" fill="#AF785F"/>
<path transform="translate(844,43)" d="m0 0 4 4 1 5-2-1-1-3 1 10 3 20v17l-1 6h-2l-1 8h-2l-2-19-6-20v-3l-15 9-14 6-19 6-12 1-9-1v-5h-8v-1l21-2 22-5 16-7 11-7 8-8z" fill="#50333F"/>
<path transform="translate(1180,901)" d="m0 0h6v4l-31 5-39 7-59 11-46 8-26 5-49 9-58 11h-13l4-3 2-1 21-3 64-12 81-15 77-14 34-6z" fill="#070507"/>
<path transform="translate(696,849)" d="m0 0 15 1 21 7 6 3 7 1 13 8 14 9 11 4 7 2 5 5 2 4v6l-5 4h-8l-9-4-9-7-11-12-11-9-11-7-11-5-16-5-10-3z" fill="#AF7960"/>
<path transform="translate(704,245)" d="m0 0h10l16 3 39 11 4 3-1 9-4 11-3 4h-8l-29-10-15-4-8-1h-23l-13 4-14 7 1-5 8-11 9-9 9-6 11-4zm5 4-13 1-13 5-10 7-6 7 2 1 10-3h28l18 4 24 8 5 2h9l5-9v-9l-5-1-16-5-26-7z" fill="#080507"/>
<path transform="translate(799,347)" d="m0 0h3l-1 16 6 17v2h2l1 3v13l-6 12-6 5h-2l-3 11-3 8-1-3 3-10v-4h-25l-15-3-2-1-3 7-5 2-15-3-23-5-9-3-1-2 6-1 25 6 18 2 1-4-5-5-1-9 3-7 3-3v11l2 5 10 5 13 3h15l10-3 5-4 3-10v-9l-5-14-2-6-1-5-1-4 3-5z" fill="#080507"/>
<path transform="translate(571,366)" d="m0 0h4v2h2l1 20 3 15 8 20 12 20 11 12 11 9 9 4 1-3 8 2 3 2-1 8-4 2-14-8-14-10-10-9-7-6-9-11-7-10-4-16-3-20z" fill="#AF7960"/>
<path transform="translate(744,833)" d="m0 0 9 1 15 5 14 9 13 10 11 12 5 6 5 3 5 1 6 7 3 3h-2v5l-4 3-9-1-7-4-9-10-11-16-9-11-10-10-8-5-13-4z" fill="#AF7960"/>
<path transform="translate(687,874)" d="m0 0h8l5 2-4 1h-11l-10 2 4 2-1 2-28 13-10 4h-21l-10-3-13-3-1-3 4-1 1-2 15 4 10 3h10l1-3h2l2-5 1-2-4 1h-25l-11-2-12-1h-19l-17 2 2-2 12-2h30l11 2h34l16-3 21-5z" fill="#AE785F"/>
<path transform="translate(692,756)" d="m0 0h1l2 16 2 1 3 28 2 2-14 5h-12l2-2v-8l-1 7-9 2 7-11 1-8v-8l4-5 2 13v8h2l-2-13v-7l5-11h1l2 12-1-15 2-2z" fill="#09030F"/>
<path transform="translate(303,731)" d="m0 0h26l37 4 23 4 19 5v2l2 2h-2v2l-6-1-9-3-19-4-18-2-16-2-14-1h-18l4 2-5 1-4 14-4 17h-1l-1-14 1-9v-15z" fill="#B37D63"/>
<path transform="translate(680,888)" d="m0 0h11l18 6 15 7 12 6 14 5 10 2v1l-13-1-27-6-40-7-13-3-2-2 12-7z" fill="#2D2B2B"/>
<path transform="translate(688,271)" d="m0 0 20 1-2 2 4 4 2 1v10l9 1 5 3-2 1-8-3-14-1-13 4h-2l-5-5-11-7-5-5 13-5z" fill="#BE8569"/>
<path transform="translate(524,301)" d="m0 0h10l-1 7-4 13v6l1 5h2v-10h1l2 10 4 9 9 6-7 4-6-1-8-7-11-18-5-10v-3h6l2 6 2-13z" fill="#BE8569"/>
<path transform="translate(771,448)" d="m0 0 2 1-6 14-5 19-2 9-5 11-1 4h-3l1-7 3-12-1-6-3-2-2-6-5-2h-11l-10 2 1 5-3 5-2 2-1-8-7-8-1-3h30l9 3 9 1 4-5 4-9-2-1-17-1-8-2v-1h8v-1l20-1z" fill="#AA755E"/>
<path transform="translate(704,290)" d="m0 0h12l10 4 6 7 3 7v14l-3 12-2 2 1-7v-15l-4-10-6-5-7-2h-13l-16 6-9 7-4 6v8l7 10 4 5-4-2-7-6-4-6-1-8 4-8 10-10 14-7z" fill="#0C090B"/>
<path transform="translate(718,310)" d="m0 0h7l3 7v10l-3 13-5 6-6 1-4-6v-17l4-10z" fill="#140E10"/>
<path transform="translate(674,428)" d="m0 0h9l15 6 12 4 32 5h23l13-1-1 3-9 3-5 1h-12l-38-6-21-6-8-4-5-1-5 2-6 18-2 7-2-1v-8l1-2h2l-1-4 4-13z" fill="#080507"/>
<path transform="translate(759,811)" d="m0 0 10 2 23 10 11 10 4 8 10 5 5 2 8 17v5l-5 2-5-5-6-7-15-24-6-7-9-6-20-8-6-2z" fill="#B07A60"/>
<path transform="translate(424,754)" d="m0 0 4 3v6l2 3 1 6-1 9-2 6-1 14 3 9 26 3v1h-16l-25-3 6-33 2-20z" fill="#282726"/>
<path transform="translate(552,312)" d="m0 0 4 2 4 8 2 5v3l-6 3-5 12h-3v-2l-4-2-5-6-1-3v-11l4-5 5-1 6 4 4 2z" fill="#C1896C"/>
<path transform="translate(667,464)" d="m0 0 3 1 7 11 11 12 8 5 3 1h9l9-4 6-8 2-6-1-3 9-3h11l6 3 1 1v5h-2l-3-4h-11l-4 1-5 12-5 6-6 4-4 1h-14l-9-5v-2l-4-2-5-5-12-17-1-3z" fill="#080507"/>
<path transform="translate(650,507)" d="m0 0 11 6 20 13 1 3 6 3-2 1-12-5-6-3v20l-2 7h-2v-3l-3-1-1-7-1-11-3-6v-4h-3l-4-9z" fill="#171214"/>
<path transform="translate(685,876)" d="m0 0h17l24 6 18 2 8 3v2l3 1-3 1-16 1-3 1-13-4-5-5-12-2-7-1 9 4-3 1-7-3-5-1h-12l-3-2-2-2z" fill="#BD8569"/>
<path transform="translate(799,347)" d="m0 0h3l-1 16 6 17v2h2l1 3v13l-6 12-6 5h-2l-1 2-1-4 6-7 2-11v-9l-5-14-2-6-1-5-1-4 3-5z" fill="#08020F"/>
<path transform="translate(748,382)" d="m0 0h2l1 9 3 6-1 5 8 3 10 2h16l8-3 5-5 2-1-2 7-6 5-10 3h-15l-16-4-8-5-2-5 1-13z" fill="#C89172"/>
<path transform="translate(846,808)" d="m0 0h13l17 4 16 8 7 4 2-9 2 1-4 10-4 1-2 8-9-10-16-8-15-4h-18l-1-2z" fill="#0A0609"/>
<path transform="translate(666,456)" d="m0 0h1l2 8-2 2 1 3v3l2 6h-2l1 5v4l3 1 1 12-5-3-3-4v-5h2l-1-4-5-2-1-3-7-1-2-2 1-10 2-3h2l5-5h4z" fill="#1C1816"/>
<path transform="translate(392,531)" d="m0 0 10 3 10 6 10 8 11 11 6 10 11 24 2 9-3-3-12-21-8-13-8-10-9-10-12-8-8-5z" fill="#070507"/>
<path transform="translate(908,786)" d="m0 0h2l-2 8-9 26-1 2-10-3-12-6-7-2-4-4h37v-10l3-10z" fill="#AA745C"/>
<path transform="translate(509,340)" d="m0 0 4 5 6 9 8 9 15 8h10l10-4 4-8 3-7 1 3-3 11h2l-2 4-5 5-6 2h-13l-10-3-8-6-7-7-4-6-4-10z" fill="#B47E64"/>
<path transform="translate(783,725)" d="m0 0h1l5 31 2 20-5 1-2-2 3-1-3-12-4-13-2-5 1-2v-5h-3v-2l-7 3-1-2h-6l3-2 16-7h2z" fill="#B37D63"/>
<path transform="translate(840,123)" d="m0 0 2 1v2l4-1-1 6-10 19-3 3-4 1-2 5h-3v-6l-1-2h-2l-1-3 12-13 8-10z" fill="#1C1816"/>
<path transform="translate(452,750)" d="m0 0 4 2 1 9 2 5-3 11-2 7-4-1-3-9h-2l-1-6 1-8 3-1v-6z" fill="#292827"/>
<path transform="translate(526,280)" d="m0 0h7l6 3 8 7 4 7 1 9-4-4-7-10-8-5-8 1-5 6-4 13h-2v-9l5-13 5-4z" fill="#0B070A"/>
<path transform="translate(710,466)" d="m0 0h30l9 3 9 2v1h-7l1 4-5-4-3-1h-11l-10 2 1 5-3 5-2 2-1-8-7-8z" fill="#BF866A"/>
<path transform="translate(687,765)" d="m0 0h1l4 29v7l-8 2-2-20v-7z" fill="#C845E2"/>
<path transform="translate(814,265)" d="m0 0h10l-1 9-3 8-6-1h-10l4-11z" fill="#251D18"/>
<path transform="translate(679,431)" d="m0 0 9 3 13 5 17 4 33 5h12l9-2 4 1-7 14-4 16-4 15-6 12-1-2 6-14 5-22 6-15v-2l-4 1h-19l-33-5-19-5-14-6-5-1z" fill="#D39D7B"/>
<path transform="translate(805,284)" d="m0 0 9 1 3 1-1 6-4 9-3-3h-5l-5 4-4 4 3-11 5-9z" fill="#B27C62"/>
<path transform="translate(541,310)" d="m0 0h7l6 4 3 5v2l-4-1-6-4-5 1-3 4v11l3 6 6 5-3 1-5-3-4-5-2-4v-13l4-7z" fill="#0B070A"/>
<path transform="translate(648,524)" d="m0 0 3 3 1 3v11l-3 9-3 2-4-6-5-2 4-8 6-10z" fill="#BE8569"/>
<path transform="translate(802,303)" d="m0 0h5l1 1-1 7-7 27-3 11-2-3 1-9 5-18v-6l-5 3-3 3 1-6 7-9z" fill="#F3EDEA"/>
<path transform="translate(468,663)" d="m0 0h2l-2 9-13 25-6 7h-1l1-11 2-16 4 1 4 5h2l1-6z" fill="#1D1917"/>
<path transform="translate(838,907)" d="m0 0 4 2 1 2-7 3-13 1h-18l-5-1 1-3 3-1 17-1 5-1z" fill="#493F45"/>
<path transform="translate(748,382)" d="m0 0h2l1 9 3 6-1 4-1 3-2 1 15 5v1l-9-1-10-5-3-6 1-13z" fill="#C28A6D"/>
<path transform="translate(798,313)" d="m0 0h3l1 6-5 18-4-1-1 5h-1v-19l2-4z" fill="#0D090B"/>
<path transform="translate(750,296)" d="m0 0 6 1-1 5-15 10-2 6h-1l-2-10-2-2 1-3 1 2 2-2 6-2 4-4z" fill="#BE8569"/>
<path transform="translate(759,811)" d="m0 0 10 2 23 10 11 10 1 9-4-4-7-9-9-6-20-8-6-2z" fill="#BE866A"/>
<path transform="translate(817,818)" d="m0 0 11 7 5 4 8 4 3 3 5 2-3 1-12-3-9-6 2 8-3-3-6-11z" fill="#BF866A"/>
<path transform="translate(679,775)" d="m0 0h1l2 13v8h2v8l-3-4h-2l-1-2-1 7-9 2 7-11 1-8v-8z" fill="#05000E"/>
<path transform="translate(751,479)" d="m0 0 4 2 1 6-3 12-2 7 4-1-1 3h-2v3l-7 1-1-1-2-1 4-7 4-10 1-3z" fill="#070406"/>
<path transform="translate(664,900)" d="m0 0 9 1 24 5 13 3 9 3-3 1-14-2-33-7-5-3z" fill="#2B2629"/>
<path transform="translate(694,792)" d="m0 0 3 2v2h2l1 5 2 2-14 5h-12l2-2 1-6 3-1 3 4 9-2-1-5z" fill="#06000F"/>
<path transform="translate(801,335)" d="m0 0h5l-1 10-2 11v8l5 14-1 4-7-19 1-15-3 2v-7l2-7z" fill="#060306"/>
<path transform="translate(509,340)" d="m0 0 4 5 6 9 8 9 5 3v3h2l-1 2-3 1-8-7-7-8-5-12z" fill="#B98267"/>
<path transform="translate(543,317)" d="m0 0 7 1 2 3-5 3-3 7-3 4-3-3v-11z" fill="#AC775E"/>
<path transform="translate(823,931)" d="m0 0 16 2 21 4-3 11h-5l2-2v-6l-26-5-2-2z" fill="#383238"/>
<path transform="translate(771,448)" d="m0 0 2 1-5 11h-3l1-4-2-1-17-1-8-2v-1h8v-1l20-1z" fill="#B07960"/>
<path transform="translate(769,57)" d="m0 0 1 3-5 5h-2v2l-13 2-3-3v-2z" fill="#493D44"/>
<path transform="translate(519,445)" d="m0 0 1 2-4 7-3 7-5 7-2 9-4-2v-10l3-1 9-11z" fill="#B98267"/>
<path transform="translate(721,323)" d="m0 0h3v9l-3 8-2 3-4-1-2-5v-5h2l1 2 3-4z" fill="#B07A61"/>
<path transform="translate(736,400)" d="m0 0h1l2 8 4 3 2 1-1 4-5 1-8-1 1-4 3-7z" fill="#C1896C"/>
<path transform="translate(806,319)" d="m0 0 3 2-2 16-3 1-4-2 2-11z" fill="#0B050F"/>
<path transform="translate(809,306)" d="m0 0 2 4 1 3 2 1-5 15h-1v-8h-3l-1-2 3-10z" fill="#0B090A"/>
<path transform="translate(876,881)" d="m0 0 2 3-2 8-3-1-1 7h-6l3-9 3-6z" fill="#261F19"/>
<path transform="translate(696,849)" d="m0 0 15 1 7 2 2 5-6-1-18-5z" fill="#B47D63"/>
<path transform="translate(876,809)" d="m0 0h12l1 3-1 4 4 4-5-2-11-5-5-2 3-1z" fill="#C68E70"/>
<path transform="translate(818,290)" d="m0 0 1 2v3l-2 11-3 7-3 1-1-5 1-3 1 1 3-15z" fill="#08030E"/>
<path transform="translate(729,466)" d="m0 0h11l9 3 9 2v1h-7l1 4-5-4-3-1-12-1z" fill="#C58D6F"/>
<path transform="translate(752,402)" d="m0 0 13 4 7 2-1 3-10-1-11-4-1-2h3z" fill="#AE775E"/>
<path transform="translate(667,483)" d="m0 0h2v4l3 1 1 12-5-3-3-4v-5h2z" fill="#1D1917"/>
<path transform="translate(756,486)" d="m0 0 4 1-1 6-5 13h-3l1-7 3-12z" fill="#B8846A"/>
<path transform="translate(910,784)" d="m0 0h2l-2 9-11 31-6-2-1-2 6 2 3-10 9-26-4 1v-2z" fill="#D49D7B"/>
<path transform="translate(792,318)" d="m0 0 5 2-2 9-3 12h-1v-19z" fill="#130F10"/>
<path transform="translate(908,786)" d="m0 0h2l-2 8-4 12-2-1v-8l3-10z" fill="#B27B61"/>
<path transform="translate(674,433)" d="m0 0 2 1-5 12-2 8 1 8 4 5 1 3-4-1-4-8v-9l6-18z" fill="#D7A07D"/>
<path transform="translate(747,450)" d="m0 0 13 1 7 2v1h-20l-8-2v-1h8z" fill="#AC755D"/>
<path transform="translate(730,447)" d="m0 0 18 2 4 3h-16l-7-2z" fill="#BA8166"/>
<path transform="translate(860,99)" d="m0 0 2 4 2 7h3l-2 4-3 4h-4z" fill="#050207"/>
<path transform="translate(860,839)" d="m0 0 12 3v2l-2 1h-7l-11-4v-1z" fill="#BF866A"/>
<path transform="translate(470,660)" d="m0 0h2l-2 10-5 11-7 14h-2l2-6 9-17 2-6v-5z" fill="#070507"/>
<path transform="translate(360,528)" d="m0 0 2 1-22 22v-3l9-10z" fill="#544150"/>
<path transform="translate(719,319)" d="m0 0h1v11l-5 5v-12h2z" fill="#0A0609"/>
<path transform="translate(719,314)" d="m0 0 4 1 2 3v9l-3 1-2-1v-10l-3 1z" fill="#5B3A3F"/>
<path transform="translate(1261,701)" d="m0 0 1 3-9 25-2 1 1-8-1-3 3-4 2 1 3-10z" fill="#6D6470"/>
<path transform="translate(525,362)" d="m0 0 7 4v3h2l-1 2-3 1-8-7z" fill="#C48C6E"/>
<path transform="translate(774,922)" d="m0 0 16 2 5 1v3l-7-1-13-2z" fill="#272326"/>
<path transform="translate(788,776)" d="m0 0h4v2l7 2v2l-16-1-2-2z" fill="#110C0F"/>
<path transform="translate(740,860)" d="m0 0 5 1 7 4v3l2 1-4 1-10-8z" fill="#C0876B"/>
<path transform="translate(849,936)" d="m0 0 11 1-3 11h-5l2-2v-7l-5-2z" fill="#4C454D"/>
<path transform="translate(676,794)" d="m0 0h1v11l-9 2 7-11z" fill="#4F4851"/>
<path transform="translate(664,900)" d="m0 0 9 1 9 2 2 3-11-1-7-2z" fill="#282426"/>
<path transform="translate(744,833)" d="m0 0 9 1 7 2 1 4-9-2-4-2z" fill="#BC8569"/>
<path transform="translate(468,663)" d="m0 0h2l-2 9-6 12-1-4z" fill="#181314"/>
<path transform="translate(674,523)" d="m0 0 5 2 2 2 1 2 6 3-2 1-12-5-2-2z" fill="#1C1816"/>
<path transform="translate(824,284)" d="m0 0 1 3-6 14-2-2v-3l1-5-2 1 2-4h4z" fill="#050306"/>
<path transform="translate(800,926)" d="m0 0 21 4v1l-9 1-10-2z" fill="#312C30"/>
<path transform="translate(720,788)" d="m0 0 17 2v1l-18 2-5 1v-3l5-1z" fill="#C0886B"/>
<path transform="translate(793,828)" d="m0 0 4 2 5 2 2 6-1 4-9-12z" fill="#CB9373"/>
<path transform="translate(805,284)" d="m0 0 3 1-5 5-4 9 2 1-5 6-1-2 5-13 4-6z" fill="#D29B79"/>
<path transform="translate(845,46)" d="m0 0 2 2 1 3 3 3 1 7-2-4h-2l-1 2-2-6z" fill="#2C2929"/>
<path transform="translate(865,807)" d="m0 0h18l-2 2-4 2h-8z" fill="#B57D63"/>
<path transform="translate(805,335)" d="m0 0h1l-1 10-2 11-2-1 1-13 1-4h2z" fill="#060309"/>
<path transform="translate(849,83)" d="m0 0h1v12l-1 6h-3v-13z" fill="#493F45"/>
<path transform="translate(1218,815)" d="m0 0 1 3-3 7-4-2 1-2h-2l1-3z" fill="#544E5B"/>
<path transform="translate(691,784)" d="m0 0 2 4 1 10v4l-9 2 1-2 6-1-1-7z" fill="#050306"/>
<path transform="translate(297,774)" d="m0 0h1l-1 15-1 7-2-3 1-15h2z" fill="#B88166"/>
<path transform="translate(696,849)" d="m0 0h7l8 4 3 2-8-1-10-3z" fill="#C58E70"/>
<path transform="translate(801,398)" d="m0 0 1 2-2 5-10 5-4-1 9-5 5-5z" fill="#AE775E"/>
<path transform="translate(759,811)" d="m0 0 10 2 7 3-3 1-6-1-9-3z" fill="#BB856A"/>
<path transform="translate(648,524)" d="m0 0 3 3 1 3v8l-3-4-2-3-2-1z" fill="#AA745C"/>
<path transform="translate(557,414)" d="m0 0h3l1 9h-2l-1 11h-1z" fill="#C48B6E"/>
<path transform="translate(504,349)" d="m0 0 3 4 10 15h-3l-9-14z" fill="#070407"/>
<path transform="translate(769,57)" d="m0 0 1 3-3 4h-7l3-1v-4z" fill="#453239"/>
<path transform="translate(742,386)" d="m0 0 1 4-3 5-1 3-3 1 1-6 3-5z" fill="#CA9273"/>
<path transform="translate(528,286)" d="m0 0 7 1v1l-8 1-7 8-1-3 6-7z" fill="#C79071"/>
<path transform="translate(726,467)" d="m0 0 7 1v3l-6 1-6-3v-1z" fill="#B07A60"/>
<path transform="translate(815,304)" d="m0 0 1 4-2 5-3 1-1-5 1-3h4z" fill="#06020C"/>
<path transform="translate(499,122)" d="m0 0 9 1 4 2-3 1-5-2-1 4-4-4z" fill="#0E080E"/>
<path transform="translate(1208,824)" d="m0 0 4 1-2 4v2l-6-1v-3z" fill="#554E5D"/>
<path transform="translate(652,820)" d="m0 0h5l-2 2-13 5h-2v-2l8-2v-2z" fill="#B17A60"/>
<path transform="translate(511,452)" d="m0 0 1 2-9 11-2-2 2-2 2-4 3-1z" fill="#0C090C"/>
<path transform="translate(667,454)" d="m0 0h1l3 10 3 3 1 3-4-1-4-8z" fill="#D6A180"/>
<path transform="translate(792,318)" d="m0 0 5 2-1 5h-3l-2 4v-7z" fill="#291E1E"/>
<path transform="translate(757,919)" d="m0 0 10 1 4 2-5 1-12-2z" fill="#231F20"/>
<path transform="translate(641,903)" d="m0 0h7l8 3v1l-10-1-6-1z" fill="#BD8F76"/>
<path transform="translate(667,447)" d="m0 0h1l-1 9-2 3-1-3v-6z" fill="#070406"/>
<path transform="translate(754,450)" d="m0 0h16l-2 4-14-3z" fill="#BF866A"/>
<path transform="translate(865,110)" d="m0 0h2l-2 4-3 4h-4l1-4 5-1z" fill="#080508"/>
<path transform="translate(904,792)" d="m0 0 2 4-2 10-2-1v-8z" fill="#BB8267"/>
<path transform="translate(733,544)" d="m0 0 5 2 5 6-2 1v-2l-5-1v-4l-3-1z" fill="#4E444E"/>
<path transform="translate(771,816)" d="m0 0 10 2 3 3-2 1-11-5z" fill="#C59072"/>
</svg>
